<svg width="80" height="80" viewBox="0 0 80 80" fill="none" xmlns="http://www.w3.org/2000/svg">
<g clip-path="url(#clip0_323_53)">
<path d="M40 80C62.0914 80 80 62.0914 80 40C80 17.9086 62.0914 0 40 0C17.9086 0 0 17.9086 0 40C0 62.0914 17.9086 80 40 80Z" fill="url(#paint0_linear_323_53)"/>
<g clip-path="url(#clip1_323_53)">
<g clip-path="url(#clip2_323_53)">
<path d="M59.1588 37.5571L54.8901 33.4619C54.4409 33.031 53.7125 33.031 53.2633 33.4619C52.814 33.8929 52.814 34.5917 53.2633 35.0227L55.5682 37.2339H50.3697V24.1036C50.3697 23.4941 49.8547 23 49.2193 23H26.7427C26.7416 23 26.7407 23.0001 26.7395 23.0001C26.5403 23.0007 26.3412 23.0507 26.1632 23.1504C25.8097 23.3481 25.5923 23.711 25.5923 24.1036V52.5714C25.5923 52.9691 25.8154 53.3361 26.1763 53.532L39.0661 60.5274C39.242 60.6229 39.4372 60.6705 39.6326 60.6705C39.8328 60.6705 40.0332 60.6203 40.2121 60.5201C40.5656 60.3224 40.783 59.9594 40.783 59.5668V53.6749H49.2193C49.8546 53.6749 50.3697 53.1808 50.3697 52.5713V39.4411H55.5681L53.2632 41.6523C52.8139 42.0833 52.8139 42.7821 53.2632 43.2131C53.4878 43.4286 53.7822 43.5363 54.0766 43.5363C54.3709 43.5363 54.6654 43.4285 54.89 43.2131L59.1587 39.1179C59.6081 38.6869 59.6081 37.9881 59.1588 37.5571ZM38.4822 57.6745L27.8931 51.9277V25.996L38.4822 31.7427V57.6745ZM48.0689 51.4677H40.783V31.0991C40.783 30.7013 40.5599 30.3343 40.199 30.1385L31.1127 25.2073H48.0689V37.2338H45.3847C44.7494 37.2338 44.2343 37.728 44.2343 38.3375C44.2343 38.947 44.7494 39.4411 45.3847 39.4411H48.0689V51.4677Z" fill="white"/>
</g>
</g>
</g>
<defs>
<linearGradient id="paint0_linear_323_53" x1="40" y1="0" x2="40" y2="79.4078" gradientUnits="userSpaceOnUse">
<stop stop-color="#52338A"/>
<stop offset="1" stop-color="#36CAA8"/>
</linearGradient>
<clipPath id="clip0_323_53">
<rect width="80" height="80" fill="white"/>
</clipPath>
<clipPath id="clip1_323_53">
<rect width="41.4375" height="39" fill="white" transform="translate(19 22)"/>
</clipPath>
<clipPath id="clip2_323_53">
<rect width="37.6705" height="37.6705" fill="white" transform="translate(23.7088 23)"/>
</clipPath>
</defs>
</svg>
