<svg width="60" height="66" viewBox="0 0 60 66" fill="none" xmlns="http://www.w3.org/2000/svg">
<circle cx="30.2578" cy="32.7422" r="21.9141" fill="url(#paint0_linear_253_97)"/>
<path d="M28.6232 34.3631C27.8357 35.1305 26.5765 35.1183 25.8041 34.3358L23.9375 32.4449C23.5936 32.0965 23.0913 31.9556 22.6164 32.0744C22.0458 32.217 21.6277 32.7045 21.5735 33.2901L21.5606 33.4297C21.5173 33.8981 21.6846 34.3616 22.0173 34.6942L25.7858 38.4627C26.5669 39.2438 27.8332 39.2438 28.6143 38.4627L38.49 28.587C39.0146 28.0624 39.0283 27.2161 38.5208 26.6748C37.9945 26.1133 37.1097 26.0933 36.5586 26.6305L28.6232 34.3631Z" fill="white"/>
<circle opacity="0.9" cx="55.5234" cy="12.6328" r="2.83594" fill="url(#paint1_linear_253_97)"/>
<circle opacity="0.5" cx="58.3594" cy="38.1562" r="1.54688" fill="url(#paint2_linear_253_97)"/>
<circle opacity="0.5" cx="24.3281" cy="1.03125" r="1.03125" fill="url(#paint3_linear_253_97)"/>
<circle opacity="0.5" cx="6.28125" cy="47.9531" r="1.03125" fill="url(#paint4_linear_253_97)"/>
<circle opacity="0.5" cx="1.64062" cy="25.7812" r="1.54688" fill="url(#paint5_linear_253_97)"/>
<circle opacity="0.5" cx="3.70312" cy="60.3281" r="1.54688" fill="url(#paint6_linear_253_97)"/>
<circle opacity="0.9" cx="4.99219" cy="7.99219" r="2.83594" fill="url(#paint7_linear_253_97)"/>
<circle opacity="0.9" cx="46.2422" cy="63.1641" r="2.83594" fill="url(#paint8_linear_253_97)"/>
<defs>
<linearGradient id="paint0_linear_253_97" x1="30.2578" y1="10.8281" x2="30.2578" y2="54.6562" gradientUnits="userSpaceOnUse">
<stop stop-color="#36CAA8"/>
<stop offset="1" stop-color="#52338A"/>
</linearGradient>
<linearGradient id="paint1_linear_253_97" x1="55.5234" y1="9.79688" x2="55.5234" y2="15.4688" gradientUnits="userSpaceOnUse">
<stop stop-color="#36CAA8"/>
<stop offset="1" stop-color="#52338A"/>
</linearGradient>
<linearGradient id="paint2_linear_253_97" x1="58.3594" y1="36.6094" x2="58.3594" y2="39.7031" gradientUnits="userSpaceOnUse">
<stop stop-color="#36CAA8"/>
<stop offset="1" stop-color="#52338A"/>
</linearGradient>
<linearGradient id="paint3_linear_253_97" x1="24.3281" y1="0" x2="24.3281" y2="2.0625" gradientUnits="userSpaceOnUse">
<stop stop-color="#36CAA8"/>
<stop offset="1" stop-color="#52338A"/>
</linearGradient>
<linearGradient id="paint4_linear_253_97" x1="6.28125" y1="46.9219" x2="6.28125" y2="48.9844" gradientUnits="userSpaceOnUse">
<stop stop-color="#36CAA8"/>
<stop offset="1" stop-color="#52338A"/>
</linearGradient>
<linearGradient id="paint5_linear_253_97" x1="1.64062" y1="24.2344" x2="1.64062" y2="27.3281" gradientUnits="userSpaceOnUse">
<stop stop-color="#36CAA8"/>
<stop offset="1" stop-color="#52338A"/>
</linearGradient>
<linearGradient id="paint6_linear_253_97" x1="3.70312" y1="58.7812" x2="3.70312" y2="61.875" gradientUnits="userSpaceOnUse">
<stop stop-color="#36CAA8"/>
<stop offset="1" stop-color="#52338A"/>
</linearGradient>
<linearGradient id="paint7_linear_253_97" x1="4.99219" y1="5.15625" x2="4.99219" y2="10.8281" gradientUnits="userSpaceOnUse">
<stop stop-color="#36CAA8"/>
<stop offset="1" stop-color="#52338A"/>
</linearGradient>
<linearGradient id="paint8_linear_253_97" x1="46.2422" y1="60.3281" x2="46.2422" y2="66" gradientUnits="userSpaceOnUse">
<stop stop-color="#36CAA8"/>
<stop offset="1" stop-color="#52338A"/>
</linearGradient>
</defs>
</svg>
