<svg width="20" height="21" viewBox="0 0 20 21" fill="none" xmlns="http://www.w3.org/2000/svg">
<g clip-path="url(#clip0_235_578)">
<path d="M8.09242 18.326C8.53482 18.8897 9.18448 19.2545 9.89762 19.3396C10.6108 19.4248 11.3286 19.2234 11.8922 18.7799C12.0656 18.6487 12.2215 18.4962 12.3564 18.326M2.72803 11.9716V11.7746C2.75649 11.1919 2.94048 10.6273 3.26103 10.1389C3.79457 9.55237 4.15982 8.83356 4.31843 8.05793C4.31843 7.45846 4.31843 6.85043 4.37001 6.25096C4.63651 3.36494 7.44766 1.36957 10.2244 1.36957H10.2932C13.07 1.36957 15.8811 3.36494 16.1562 6.25096C16.2078 6.85043 16.1562 7.45846 16.1992 8.05793C16.3599 8.83536 16.7248 9.55641 17.2566 10.1475C17.5795 10.6315 17.7638 11.1941 17.7896 11.7746V11.963C17.8088 12.746 17.5432 13.5094 17.0417 14.1126C16.379 14.8178 15.4798 15.2566 14.5142 15.3458C11.6829 15.6541 8.82618 15.6541 5.99481 15.3458C5.03033 15.2527 4.1324 14.8146 3.46735 14.1126C2.97362 13.509 2.71156 12.7501 2.72803 11.9716Z" stroke="#39373C" stroke-width="1.6" stroke-linecap="round" stroke-linejoin="round"/>
</g>
<defs>
<clipPath id="clip0_235_578">
<rect width="19" height="20" fill="white" transform="translate(1 0.5)"/>
</clipPath>
</defs>
</svg>
