<svg width="22" height="23" viewBox="0 0 22 23" fill="none" xmlns="http://www.w3.org/2000/svg">
<path d="M11.3574 6.37817H5.85742C5.67509 6.37817 5.50022 6.45061 5.37129 6.57954C5.24235 6.70847 5.16992 6.88334 5.16992 7.06567C5.16992 7.24801 5.24235 7.42288 5.37129 7.55181C5.50022 7.68074 5.67509 7.75317 5.85742 7.75317H11.3574C11.5398 7.75317 11.7146 7.68074 11.8436 7.55181C11.9725 7.42288 12.0449 7.24801 12.0449 7.06567C12.0449 6.88334 11.9725 6.70847 11.8436 6.57954C11.7146 6.45061 11.5398 6.37817 11.3574 6.37817Z" fill="#353B43"/>
<path d="M11.3574 10.0562H5.85742C5.67509 10.0562 5.50022 10.1286 5.37129 10.2575C5.24235 10.3864 5.16992 10.5613 5.16992 10.7437C5.16992 10.926 5.24235 11.1009 5.37129 11.2298C5.50022 11.3587 5.67509 11.4312 5.85742 11.4312H11.3574C11.5398 11.4312 11.7146 11.3587 11.8436 11.2298C11.9725 11.1009 12.0449 10.926 12.0449 10.7437C12.0449 10.5613 11.9725 10.3864 11.8436 10.2575C11.7146 10.1286 11.5398 10.0562 11.3574 10.0562Z" fill="#353B43"/>
<path d="M11.3574 13.8169H5.85742C5.67509 13.8169 5.50022 13.8893 5.37129 14.0183C5.24235 14.1472 5.16992 14.3221 5.16992 14.5044C5.16992 14.6867 5.24235 14.8616 5.37129 14.9905C5.50022 15.1195 5.67509 15.1919 5.85742 15.1919H11.3574C11.5398 15.1919 11.7146 15.1195 11.8436 14.9905C11.9725 14.8616 12.0449 14.6867 12.0449 14.5044C12.0449 14.3221 11.9725 14.1472 11.8436 14.0183C11.7146 13.8893 11.5398 13.8169 11.3574 13.8169Z" fill="#353B43"/>
<path d="M17.7856 1.1875H4.21433C3.86164 1.1884 3.51259 1.25887 3.18718 1.39488C2.86178 1.53089 2.5664 1.72976 2.31797 1.98011C2.06954 2.23045 1.87294 2.52735 1.73944 2.85379C1.60593 3.18024 1.53814 3.52982 1.53995 3.8825V20.6506C1.5395 20.8227 1.58486 20.9918 1.67137 21.1405C1.75788 21.2893 1.88242 21.4123 2.03221 21.497C2.18199 21.5817 2.35162 21.625 2.52367 21.6224C2.69572 21.6199 2.86399 21.5716 3.0112 21.4825L5.5412 19.9631C5.57937 19.9394 5.62343 19.9268 5.66839 19.9268C5.71335 19.9268 5.75741 19.9394 5.79558 19.9631L8.60745 21.6475C8.75535 21.7418 8.92707 21.7918 9.10245 21.7919C9.27892 21.791 9.45203 21.7435 9.60433 21.6544L12.43 19.9631C12.4681 19.9394 12.5122 19.9268 12.5571 19.9268C12.6021 19.9268 12.6462 19.9394 12.6843 19.9631L15.2006 21.4825C15.3483 21.5703 15.5169 21.6166 15.6887 21.6166C15.8605 21.6166 16.0291 21.5703 16.1768 21.4825C16.3247 21.3979 16.4477 21.2759 16.5334 21.1286C16.6191 20.9814 16.6645 20.8141 16.665 20.6437V9.0525H18.8237C19.2571 9.05069 19.6722 8.87772 19.9787 8.57125C20.2852 8.26479 20.4581 7.84965 20.46 7.41625V3.8825C20.4618 3.52982 20.394 3.18024 20.2605 2.85379C20.127 2.52735 19.9304 2.23045 19.6819 1.98011C19.4335 1.72976 19.1381 1.53089 18.8127 1.39488C18.4873 1.25887 18.1383 1.1884 17.7856 1.1875ZM15.29 19.9288L13.3925 18.7875C13.1397 18.6374 12.8511 18.5582 12.5571 18.5582C12.2632 18.5582 11.9746 18.6374 11.7218 18.7875L9.10933 20.355L6.5037 18.7806C6.24791 18.6276 5.95518 18.5474 5.65712 18.5486C5.35906 18.5498 5.06699 18.6324 4.81245 18.7875L2.91495 19.9356V3.8825C2.91222 3.71014 2.9438 3.53895 3.00788 3.37891C3.07195 3.21888 3.16723 3.07319 3.28816 2.95034C3.40909 2.82749 3.55326 2.72993 3.71227 2.66334C3.87127 2.59676 4.04194 2.56248 4.21433 2.5625H15.5718C15.3903 2.90838 15.2936 3.29251 15.29 3.68313V19.9081V19.9288ZM19.085 7.41625C19.085 7.48554 19.0574 7.55199 19.0084 7.60098C18.9594 7.64998 18.893 7.6775 18.8237 7.6775H16.665V3.70375C16.6622 3.55486 16.6892 3.40692 16.7443 3.26857C16.7993 3.13022 16.8815 3.00424 16.9858 2.89798C17.0901 2.79173 17.2146 2.70733 17.3519 2.64973C17.4892 2.59213 17.6367 2.56247 17.7856 2.5625C18.1302 2.5625 18.4607 2.6994 18.7044 2.94308C18.9481 3.18676 19.085 3.51726 19.085 3.86187V7.41625Z" fill="#353B43"/>
</svg>
