<svg width="20" height="20" viewBox="0 0 20 20" fill="none" xmlns="http://www.w3.org/2000/svg">
<path d="M6.24992 2.08333C6.24992 1.6231 5.87682 1.25 5.41659 1.25C4.95635 1.25 4.58325 1.6231 4.58325 2.08333V2.91667C4.58325 3.3769 4.95635 3.75 5.41659 3.75C5.87682 3.75 6.24992 3.3769 6.24992 2.91667V2.08333Z" fill="#9CA3AF"/>
<path d="M15.4167 2.08333C15.4167 1.6231 15.0436 1.25 14.5833 1.25C14.1231 1.25 13.75 1.6231 13.75 2.08333V2.91667C13.75 3.3769 14.1231 3.75 14.5833 3.75C15.0436 3.75 15.4167 3.3769 15.4167 2.91667V2.08333Z" fill="#9CA3AF"/>
<path d="M1.66675 7.5V17.0833C1.66675 18.0037 2.413 18.75 3.33341 18.75H16.6667C17.5872 18.75 18.3334 18.0037 18.3334 17.0833V7.5H1.66675ZM6.66675 15.8333C6.66675 16.2937 6.29383 16.6667 5.83342 16.6667H5.00008C4.53966 16.6667 4.16675 16.2937 4.16675 15.8333V15C4.16675 14.5396 4.53966 14.1667 5.00008 14.1667H5.83342C6.29383 14.1667 6.66675 14.5396 6.66675 15V15.8333ZM6.66675 11.25C6.66675 11.7104 6.29383 12.0833 5.83342 12.0833H5.00008C4.53966 12.0833 4.16675 11.7104 4.16675 11.25V10.4167C4.16675 9.95625 4.53966 9.58333 5.00008 9.58333H5.83342C6.29383 9.58333 6.66675 9.95625 6.66675 10.4167V11.25ZM11.2501 15.8333C11.2501 16.2937 10.8772 16.6667 10.4167 16.6667H9.58342C9.123 16.6667 8.75008 16.2937 8.75008 15.8333V15C8.75008 14.5396 9.123 14.1667 9.58342 14.1667H10.4167C10.8772 14.1667 11.2501 14.5396 11.2501 15V15.8333ZM11.2501 11.25C11.2501 11.7104 10.8772 12.0833 10.4167 12.0833H9.58342C9.123 12.0833 8.75008 11.7104 8.75008 11.25V10.4167C8.75008 9.95625 9.123 9.58333 9.58342 9.58333H10.4167C10.8772 9.58333 11.2501 9.95625 11.2501 10.4167V11.25ZM15.8334 15.8333C15.8334 16.2937 15.4605 16.6667 15.0001 16.6667H14.1667C13.7063 16.6667 13.3334 16.2937 13.3334 15.8333V15C13.3334 14.5396 13.7063 14.1667 14.1667 14.1667H15.0001C15.4605 14.1667 15.8334 14.5396 15.8334 15V15.8333ZM15.8334 11.25C15.8334 11.7104 15.4605 12.0833 15.0001 12.0833H14.1667C13.7063 12.0833 13.3334 11.7104 13.3334 11.25V10.4167C13.3334 9.95625 13.7063 9.58333 14.1667 9.58333H15.0001C15.4605 9.58333 15.8334 9.95625 15.8334 10.4167V11.25Z" fill="#9CA3AF"/>
<path d="M18.3334 6.66667V4.16667C18.3334 3.24625 17.5872 2.5 16.6667 2.5H16.2501V2.91667C16.2501 3.83583 15.5026 4.58333 14.5834 4.58333C13.6642 4.58333 12.9167 3.83583 12.9167 2.91667V2.5H7.08342V2.91667C7.08342 3.83583 6.33592 4.58333 5.41675 4.58333C4.49758 4.58333 3.75008 3.83583 3.75008 2.91667V2.5H3.33341C2.413 2.5 1.66675 3.24625 1.66675 4.16667V6.66667H18.3334Z" fill="#9CA3AF"/>
</svg>
