<svg width="21" height="22" viewBox="0 0 21 22" fill="none" xmlns="http://www.w3.org/2000/svg">
<g clip-path="url(#clip0_235_447)">
<path d="M12.9075 11.3074L9.44989 14.7651L8.09224 13.4074C7.99475 13.31 7.87902 13.2327 7.75164 13.1799C7.62428 13.1272 7.48776 13.1 7.34989 13.1C7.21203 13.1 7.07551 13.1272 6.94813 13.1799C6.82076 13.2327 6.70502 13.31 6.60754 13.4074C6.51006 13.505 6.43273 13.6207 6.37996 13.7481C6.3272 13.8754 6.30005 14.0119 6.30005 14.1498C6.30005 14.2878 6.3272 14.4243 6.37996 14.5516C6.43273 14.679 6.51006 14.7947 6.60754 14.8922L8.70754 16.9922C8.80482 17.09 8.92049 17.1677 9.0479 17.2206C9.17529 17.2736 9.31191 17.3009 9.44989 17.3009C9.58787 17.3009 9.72449 17.2736 9.85188 17.2206C9.97928 17.1677 10.095 17.09 10.1922 16.9922L14.3923 12.7921C14.4897 12.6947 14.567 12.579 14.6198 12.4516C14.6725 12.3243 14.6997 12.1878 14.6997 12.0498C14.6997 11.9119 14.6725 11.7754 14.6198 11.6481C14.567 11.5207 14.4897 11.405 14.3923 11.3074C14.2947 11.21 14.179 11.1327 14.0517 11.0799C13.9243 11.0272 13.7878 11 13.6498 11C13.512 11 13.3755 11.0272 13.2481 11.0799C13.1207 11.1327 13.005 11.21 12.9075 11.3074Z" fill="#7E22CE"/>
<path fill-rule="evenodd" clip-rule="evenodd" d="M15.75 2.6H18.375C19.215 2.6 19.9501 3.335 19.9501 4.175V19.925C19.9501 20.765 19.215 21.5 18.375 21.5H2.62505C1.78505 21.5 1.05005 20.765 1.05005 19.925V4.175C1.05005 3.335 1.78505 2.6 2.62505 2.6H4.20005V1.55C4.20005 0.970101 4.67016 0.5 5.25005 0.5C5.82994 0.5 6.30005 0.970101 6.30005 1.55V2.6H13.65V1.55C13.65 0.970101 14.1201 0.5 14.7 0.5C15.28 0.5 15.75 0.970101 15.75 1.55V2.6ZM17.85 19.4H3.15005V8.9H17.85V19.4Z" fill="#7E22CE"/>
</g>
<defs>
<clipPath id="clip0_235_447">
<rect width="21" height="21" fill="white" transform="translate(0 0.5)"/>
</clipPath>
</defs>
</svg>
