<svg width="15" height="14" viewBox="0 0 15 14" fill="none" xmlns="http://www.w3.org/2000/svg">
<g clip-path="url(#clip0_50_5)">
<path d="M11.4998 8.78884C11.197 8.37449 10.7421 8.09725 10.2351 8.01803C9.72806 7.93881 9.21032 8.06407 8.79558 8.36631L7.99983 8.94376C6.85521 7.90803 5.93697 6.64695 5.3027 5.23962L6.09142 4.66216C6.50734 4.35917 6.78612 3.9036 6.86665 3.39536C6.94718 2.88712 6.82287 2.36768 6.52098 1.95096L5.7041 0.817177C5.55671 0.610093 5.36914 0.43479 5.15259 0.301709C4.93603 0.168627 4.6949 0.08049 4.44356 0.0425459C3.94705 -0.0306844 3.44158 0.0931555 3.03514 0.387609L1.78165 1.27491C1.38347 1.56228 1.07355 1.95525 0.886898 2.40944C0.700244 2.86363 0.644283 3.36097 0.725335 3.84528C1.08314 5.93056 1.91747 7.9051 3.16335 9.61512C4.40923 11.3252 6.03302 12.7245 7.90828 13.7042C8.28522 13.8979 8.70278 13.9993 9.12656 14C9.684 14.0015 10.2272 13.8238 10.6758 13.493L11.9011 12.6479C12.3166 12.3462 12.5952 11.8919 12.6758 11.3848C12.7563 10.8777 12.6322 10.3593 12.3307 9.94374L11.4998 8.78884ZM11.2814 11.7817L10.0561 12.6479C9.81789 12.8206 9.53645 12.9239 9.24307 12.9462C8.94969 12.9686 8.65585 12.9092 8.39418 12.7747C6.65676 11.8653 5.15401 10.5652 4.00416 8.97668C2.8543 7.38814 2.0887 5.55448 1.76757 3.61993C1.7186 3.32933 1.75202 3.03082 1.86404 2.75824C1.97606 2.48566 2.1622 2.24991 2.40135 2.07771L3.61964 1.2397C3.77222 1.1319 3.95394 1.07296 4.14075 1.07069H4.27455C4.38927 1.08841 4.49934 1.12864 4.59845 1.18907C4.69755 1.2495 4.78372 1.32893 4.85201 1.4228L5.68297 2.5777C5.81861 2.76658 5.87401 3.00145 5.83707 3.23103C5.80012 3.46061 5.67384 3.66624 5.4858 3.80303L4.34497 4.634C4.24984 4.70379 4.18081 4.80343 4.1489 4.91702C4.117 5.03061 4.12404 5.15162 4.16892 5.26074C4.91423 7.10678 6.10157 8.7415 7.62659 10.0212C7.71873 10.0943 7.8329 10.1341 7.95053 10.1341C8.06816 10.1341 8.18233 10.0943 8.27447 10.0212L9.41529 9.19728C9.50905 9.12902 9.61537 9.07996 9.72815 9.05292C9.84093 9.02588 9.95794 9.02139 10.0725 9.03972C10.187 9.05804 10.2967 9.09881 10.3955 9.15969C10.4942 9.22057 10.5799 9.30035 10.6477 9.39446L11.4716 10.5353C11.5415 10.6294 11.5921 10.7364 11.6203 10.8502C11.6486 10.964 11.6541 11.0822 11.6364 11.1981C11.6187 11.3141 11.5783 11.4253 11.5173 11.5255C11.4564 11.6256 11.3762 11.7127 11.2814 11.7817ZM8.26743 2.72559C8.2906 2.65702 8.3278 2.59402 8.37667 2.54063C8.42553 2.48723 8.48498 2.4446 8.55124 2.41545C8.61749 2.3863 8.68909 2.37127 8.76147 2.37132C8.83385 2.37137 8.90542 2.38649 8.97164 2.41573C9.77428 2.71254 10.4706 3.24121 10.9721 3.9346C11.4737 4.62799 11.7578 5.4548 11.7885 6.31002C11.7923 6.44893 11.7412 6.58374 11.6463 6.68524C11.5514 6.78674 11.4203 6.84675 11.2814 6.85226C11.145 6.85237 11.0137 6.79963 10.9153 6.70511C10.8168 6.61058 10.7587 6.48161 10.7533 6.34523C10.7308 5.70088 10.5183 5.07758 10.1423 4.55379C9.76641 4.02999 9.24392 3.62912 8.64066 3.40163C8.57042 3.38396 8.50457 3.35203 8.4472 3.30783C8.38983 3.26363 8.34216 3.20811 8.30715 3.1447C8.27215 3.0813 8.25056 3.01137 8.24372 2.93927C8.23689 2.86717 8.24496 2.79444 8.26743 2.72559ZM14.3095 6.17622C14.3214 6.31603 14.2778 6.45488 14.1882 6.56288C14.0987 6.67088 13.9703 6.7394 13.8307 6.75367H13.7814C13.6499 6.75267 13.5234 6.7033 13.426 6.61498C13.3286 6.52666 13.2671 6.40557 13.2532 6.27481C13.1512 5.13509 12.7424 4.04426 12.0704 3.11809C11.3984 2.19193 10.4882 1.46496 9.43641 1.01436C9.30754 0.959259 9.20584 0.855226 9.15367 0.725142C9.10151 0.595058 9.10315 0.449579 9.15825 0.320709C9.21335 0.191839 9.31738 0.0901342 9.44746 0.0379685C9.57755 -0.0141972 9.72303 -0.0125507 9.8519 0.0425459C11.0816 0.564101 12.1462 1.41053 12.9315 2.49108C13.7168 3.57162 14.1932 4.84553 14.3095 6.17622Z" fill="#7294EA"/>
</g>
<defs>
<clipPath id="clip0_50_5">
<rect width="14" height="14" fill="white" transform="translate(0.5)"/>
</clipPath>
</defs>
</svg>
