<svg width="20" height="20" viewBox="0 0 20 20" fill="none" xmlns="http://www.w3.org/2000/svg">
<g clip-path="url(#clip0_306_2550)">
<path fill-rule="evenodd" clip-rule="evenodd" d="M17.2698 16.0042H2.73039C2.40678 16.0042 2.14223 16.3004 2.14223 16.6627V17.3413C2.14223 17.7036 2.40678 18 2.73039 18H17.2698C17.5933 18 17.8582 17.7036 17.8582 17.3413V16.6627C17.8582 16.3003 17.5932 16.0042 17.2698 16.0042ZM20 5.561C20 6.2963 19.464 6.8964 18.807 6.8964C18.7325 6.8964 18.6591 6.88795 18.5879 6.87311L17.3127 14.5118C17.2986 14.5114 17.2839 14.5114 17.2698 14.5114H2.73039C2.71608 14.5114 2.70177 14.5114 2.68727 14.5118L1.41225 6.87311C1.34091 6.88795 1.26767 6.8964 1.19299 6.8964C0.536246 6.8964 0 6.2963 0 5.561C0 4.8257 0.536181 4.2253 1.19299 4.2253C1.84979 4.2253 2.38591 4.82496 2.38591 5.561C2.38591 5.86212 2.29567 6.1406 2.14453 6.36442L5.72486 9.3899L9.51921 4.97177C9.00003 4.75288 8.62929 4.19099 8.62929 3.53453C8.62929 2.6896 9.24482 2 10.0001 2C10.7553 2 11.371 2.68967 11.371 3.53453C11.371 4.19092 11 4.75288 10.4809 4.97177L14.275 9.3899L17.8553 6.36442C17.7043 6.1406 17.614 5.86212 17.614 5.561C17.614 4.82496 18.1501 4.2253 18.8069 4.2253C19.4638 4.2253 20 4.82496 20 5.561Z" fill="#AEAEAE"/>
</g>
<defs>
<clipPath id="clip0_306_2550">
<rect width="20" height="20" fill="white"/>
</clipPath>
</defs>
</svg>
