<svg width="32" height="32" viewBox="0 0 32 32" fill="none" xmlns="http://www.w3.org/2000/svg">
<g clip-path="url(#clip0_287_486)">
<path d="M16 31.7466C24.6967 31.7466 31.7467 24.6966 31.7467 16C31.7467 7.30338 24.6967 0.253376 16 0.253376C7.30342 0.253376 0.253418 7.30338 0.253418 16C0.253418 24.6966 7.30342 31.7466 16 31.7466Z" fill="white"/>
<path fill-rule="evenodd" clip-rule="evenodd" d="M21.8158 20.3784H10.1843C9.92542 20.3784 9.71378 20.619 9.71378 20.9134V21.4648C9.71378 21.7592 9.92542 22 10.1843 22H21.8158C22.0746 22 22.2865 21.7592 22.2865 21.4648V20.9134C22.2865 20.619 22.0746 20.3784 21.8158 20.3784ZM24 11.8933C24 12.4907 23.5712 12.9783 23.0456 12.9783C22.986 12.9783 22.9273 12.9715 22.8704 12.9594L21.8502 19.1658C21.8389 19.1655 21.8271 19.1655 21.8158 19.1655H10.1843C10.1729 19.1655 10.1614 19.1655 10.1498 19.1658L9.1298 12.9594C9.07273 12.9715 9.01414 12.9783 8.95439 12.9783C8.429 12.9783 8 12.4907 8 11.8933C8 11.2959 8.42894 10.8081 8.95439 10.8081C9.47983 10.8081 9.90872 11.2953 9.90872 11.8933C9.90872 12.138 9.83653 12.3642 9.71562 12.5461L12.5799 15.0043L15.6154 11.4146C15.2 11.2367 14.9034 10.7802 14.9034 10.2468C14.9034 9.5603 15.3959 9 16.0001 9C16.6042 9 17.0968 9.56036 17.0968 10.2468C17.0968 10.7801 16.8 11.2367 16.3847 11.4146L19.42 15.0043L22.2843 12.5461C22.1634 12.3642 22.0912 12.138 22.0912 11.8933C22.0912 11.2953 22.5201 10.8081 23.0456 10.8081C23.571 10.8081 23.9999 11.2953 23.9999 11.8933H24Z" fill="url(#paint0_linear_287_486)"/>
</g>
<defs>
<linearGradient id="paint0_linear_287_486" x1="15.9999" y1="10.8551" x2="15.9999" y2="20.1436" gradientUnits="userSpaceOnUse">
<stop stop-color="#F26021"/>
<stop offset="1" stop-color="#FFC621"/>
</linearGradient>
<clipPath id="clip0_287_486">
<rect width="32" height="32" fill="white"/>
</clipPath>
</defs>
</svg>
