<svg width="22" height="22" viewBox="0 0 22 22" fill="none" xmlns="http://www.w3.org/2000/svg">
<path d="M0.6875 3.87832H11.1549C11.4704 5.31429 12.7527 6.39234 14.2821 6.39234C15.8114 6.39234 17.0938 5.31434 17.4093 3.87832H21.3125C21.6922 3.87832 22 3.57049 22 3.19082C22 2.81115 21.6922 2.50332 21.3125 2.50332H17.4089C17.0928 1.06808 15.8087 -0.0106506 14.2821 -0.0106506C12.7546 -0.0106506 11.4711 1.06791 11.1552 2.50332H0.6875C0.307828 2.50332 0 2.81115 0 3.19082C0 3.57049 0.307828 3.87832 0.6875 3.87832ZM12.4557 3.19263C12.4557 3.19018 12.4557 3.18769 12.4557 3.18524C12.4587 2.18119 13.278 1.36439 14.2821 1.36439C15.2848 1.36439 16.1041 2.18007 16.1084 3.18365L16.1086 3.19374C16.107 4.19951 15.2882 5.01738 14.2821 5.01738C13.2764 5.01738 12.4579 4.20033 12.4556 3.19516L12.4557 3.19263ZM21.3125 18.1216H17.4089C17.0928 16.6864 15.8087 15.6077 14.2821 15.6077C12.7546 15.6077 11.4711 16.6863 11.1552 18.1216H0.6875C0.307828 18.1216 0 18.4294 0 18.8091C0 19.1889 0.307828 19.4966 0.6875 19.4966H11.1549C11.4704 20.9326 12.7527 22.0107 14.2821 22.0107C15.8114 22.0107 17.0938 20.9326 17.4093 19.4966H21.3125C21.6922 19.4966 22 19.1889 22 18.8091C22 18.4294 21.6922 18.1216 21.3125 18.1216ZM14.2821 20.6357C13.2764 20.6357 12.4579 19.8186 12.4556 18.8134L12.4557 18.811C12.4557 18.8085 12.4557 18.806 12.4557 18.8036C12.4587 17.7995 13.278 16.9827 14.2821 16.9827C15.2848 16.9827 16.1041 17.7983 16.1084 18.8019L16.1086 18.812C16.1071 19.8179 15.2883 20.6357 14.2821 20.6357ZM21.3125 10.3125H10.8451C10.5296 8.87653 9.24726 7.79853 7.71792 7.79853C6.18857 7.79853 4.90621 8.87653 4.59074 10.3125H0.6875C0.307828 10.3125 0 10.6203 0 11C0 11.3797 0.307828 11.6875 0.6875 11.6875H4.59108C4.9072 13.1227 6.19128 14.2015 7.71792 14.2015C9.24537 14.2015 10.5289 13.1229 10.8448 11.6875H21.3125C21.6922 11.6875 22 11.3797 22 11C22 10.6203 21.6922 10.3125 21.3125 10.3125ZM9.54435 10.9982C9.54435 11.0007 9.5443 11.0031 9.5443 11.0056C9.5413 12.0096 8.72201 12.8264 7.71792 12.8264C6.71524 12.8264 5.89591 12.0108 5.89157 11.0072L5.89145 10.9972C5.89295 9.99127 6.71172 9.17353 7.71792 9.17353C8.72364 9.17353 9.54211 9.99054 9.54439 10.9958L9.54435 10.9982Z" fill="white"/>
</svg>
