<svg width="96" height="105" viewBox="0 0 96 105" fill="none" xmlns="http://www.w3.org/2000/svg">
<circle cx="48.4102" cy="52.0898" r="34.8633" fill="#36CAA8"/>
<path d="M46.0774 54.4077C44.6765 55.7729 42.4362 55.7511 41.062 54.359L38.3552 51.6169C37.8081 51.0626 37.0089 50.8385 36.2533 51.0274C35.3457 51.2543 34.6804 52.0299 34.5942 52.9615L34.5737 53.1835C34.5047 53.9288 34.771 54.6661 35.3002 55.1953L41.0295 60.9246C42.4191 62.3142 44.672 62.3142 46.0615 60.9246L61.5068 45.4793C62.3414 44.6447 62.3631 43.2983 61.5558 42.4372C60.7185 41.5439 59.3109 41.5121 58.4341 42.3666L46.0774 54.4077Z" fill="white"/>
<circle opacity="0.9" cx="88.6055" cy="20.0977" r="4.51172" fill="#36CAA8"/>
<circle opacity="0.5" cx="93.1172" cy="60.7031" r="2.46094" fill="#52338A"/>
<circle opacity="0.5" cx="38.9766" cy="1.64062" r="1.64062" fill="#36CAA8"/>
<circle opacity="0.5" cx="10.2656" cy="76.2891" r="1.64062" fill="#36CAA8"/>
<circle opacity="0.5" cx="2.88281" cy="41.0156" r="2.46094" fill="#52338A"/>
<circle opacity="0.5" cx="6.16406" cy="95.9766" r="2.46094" fill="#52338A"/>
<circle opacity="0.9" cx="8.21484" cy="12.7148" r="4.51172" fill="#36CAA8"/>
<circle opacity="0.9" cx="73.8398" cy="100.488" r="4.51172" fill="#36CAA8"/>
</svg>
