<svg width="17" height="17" viewBox="0 0 17 17" fill="none" xmlns="http://www.w3.org/2000/svg">
<path d="M16.9955 8.4834C16.9955 9.08105 16.5528 9.54922 16.051 9.54922H15.1065L15.1272 14.8684C15.1272 14.958 15.1213 15.0477 15.1124 15.1373V15.6719C15.1124 16.4057 14.5841 17 13.9317 17H13.4595C13.427 17 13.3945 17 13.3621 16.9967C13.3208 17 13.2794 17 13.2381 17H12.2788H11.5704C10.9181 17 10.3898 16.4057 10.3898 15.6719V14.875V12.75C10.3898 12.1623 9.96769 11.6875 9.44525 11.6875H7.5562C7.03376 11.6875 6.61167 12.1623 6.61167 12.75V14.875V15.6719C6.61167 16.4057 6.08333 17 5.43102 17H4.72262H3.78105C3.73678 17 3.6925 16.9967 3.64823 16.9934C3.61281 16.9967 3.57739 17 3.54197 17H3.06971C2.41739 17 1.88905 16.4057 1.88905 15.6719V11.9531C1.88905 11.9232 1.88905 11.89 1.892 11.8602V9.54922H0.944525C0.41323 9.54922 0 9.08438 0 8.4834C0 8.18457 0.0885492 7.91895 0.295164 7.68652L7.86317 0.265625C8.06978 0.0332031 8.30591 0 8.51253 0C8.71914 0 8.95528 0.0664062 9.13237 0.232422L16.6709 7.68652C16.907 7.91895 17.0251 8.18457 16.9955 8.4834Z" fill="#AEAEAE"/>
</svg>
