<svg width="28" height="28" viewBox="0 0 28 28" fill="none" xmlns="http://www.w3.org/2000/svg">
<path d="M25 26H2V2H25V26Z" stroke="#E5E7EB"/>
<path d="M24.9649 19.1689H24.4849V5.5589H24.9649C25.5149 5.5589 25.9649 5.10889 25.9649 4.5589C25.9649 4.00891 25.5149 3.5589 24.9649 3.5589H15.2349V2.9989C15.2349 2.44891 14.7849 1.9989 14.2349 1.9989C13.6749 1.9989 13.2349 2.44891 13.2349 2.9989V3.5589H3.03491C2.48486 3.5589 2.03491 4.00891 2.03491 4.5589C2.03491 5.10889 2.48486 5.5589 3.03491 5.5589H3.51489V19.1689H3.03491C2.48486 19.1689 2.03491 19.6089 2.03491 20.1689C2.03491 20.7189 2.48486 21.1689 3.03491 21.1689H10.3149L8.54486 24.5389C8.28491 25.0289 8.47485 25.6289 8.9649 25.8889C9.4549 26.1389 10.0549 25.9589 10.3149 25.4689L12.5749 21.1689H16.3049L18.5649 25.4689C18.7984 25.91 19.3553 26.1501 19.9149 25.8889C20.4049 25.6289 20.5949 25.0289 20.3349 24.5389L18.5649 21.1689H24.9649C25.5149 21.1689 25.9649 20.7189 25.9649 20.1689C25.9649 19.6089 25.5149 19.1689 24.9649 19.1689ZM20.2485 10.2487L16.3589 15.3829C15.9858 15.8764 15.2423 15.9215 14.8164 15.4454L11.8545 12.1305L9.37305 15.7452C9.06114 16.2005 8.43676 16.3164 7.98291 16.0035C7.52734 15.691 7.41162 15.069 7.72461 14.6134L10.9268 9.94836C11.1001 9.69543 11.3809 9.53577 11.687 9.51623C11.9951 9.49084 12.292 9.61926 12.4966 9.84778L15.4985 13.2072L18.6548 9.04065C18.9873 8.6012 19.6143 8.51233 20.0557 8.84778C20.4956 9.18127 20.582 9.80823 20.2485 10.2487Z" fill="#F98428"/>
</svg>
