<svg width="21" height="20" viewBox="0 0 21 20" fill="none" xmlns="http://www.w3.org/2000/svg">
<g clip-path="url(#clip0_306_2157)">
<g clip-path="url(#clip1_306_2157)">
<path d="M4.72392 5.9375C6.08517 5.9375 7.19263 4.83 7.19263 3.46875C7.19263 2.1075 6.08517 1 4.72392 1C3.36267 1 2.25513 2.1075 2.25513 3.46875C2.25513 4.83 3.36263 5.9375 4.72392 5.9375Z" fill="#AEAEAE"/>
<path d="M17.2762 5.9375C18.6374 5.9375 19.7449 4.83 19.7449 3.46875C19.7449 2.1075 18.6374 1 17.2762 1C15.9149 1 14.8074 2.1075 14.8074 3.46875C14.8074 4.83 15.9149 5.9375 17.2762 5.9375Z" fill="#AEAEAE"/>
<path d="M11 7.19269C12.3613 7.19269 13.4688 6.08519 13.4688 4.72394C13.4688 3.36269 12.3613 2.25519 11 2.25519C9.63879 2.25519 8.53125 3.36269 8.53125 4.72394C8.53125 6.08519 9.63875 7.19269 11 7.19269Z" fill="#AEAEAE"/>
<path d="M9.15882 16.8912V20.4141C9.15882 20.6172 9.26394 20.8058 9.43671 20.9125C9.613 21.0215 9.8289 21.0271 10.0068 20.9382L12.5173 19.683C12.7158 19.5837 12.8412 19.3808 12.8412 19.1589V16.8912L16.3469 13.3854H5.65308L9.15882 16.8912Z" fill="#AEAEAE"/>
<path d="M17.9036 8.53125H4.09626C3.08106 8.53125 2.25513 9.35719 2.25513 10.3724C2.25513 11.3876 3.08106 12.2136 4.09626 12.2136H17.9036C18.9188 12.2136 19.7447 11.3876 19.7447 10.3724C19.7447 9.35719 18.9188 8.53125 17.9036 8.53125Z" fill="#AEAEAE"/>
</g>
</g>
<defs>
<clipPath id="clip0_306_2157">
<rect width="21" height="21" fill="white" transform="translate(0 -0.5)"/>
</clipPath>
<clipPath id="clip1_306_2157">
<rect width="20" height="20" fill="white" transform="translate(1 1)"/>
</clipPath>
</defs>
</svg>
