<svg width="15" height="20" viewBox="0 0 15 20" fill="none" xmlns="http://www.w3.org/2000/svg">
<path fill-rule="evenodd" clip-rule="evenodd" d="M7.50014 0C10.2267 0 12.4569 2.2302 12.4569 4.95676V12.4716H10.3519V4.95676C10.3519 3.39254 9.06436 2.105 7.50018 2.105C5.936 2.105 4.64955 3.39258 4.64955 4.95676V12.4716H2.54346V4.95676C2.54338 2.2302 4.77357 0 7.50014 0Z" fill="#B1CEFF"/>
<path fill-rule="evenodd" clip-rule="evenodd" d="M7.49984 0C10.2264 0 12.4566 2.2302 12.4566 4.95676V12.4716H11.3796V4.95676C11.3796 2.41234 9.43633 0.300547 6.96141 0.0296094C7.13895 0.0102344 7.3177 0 7.49984 0ZM6.96137 2.15734C5.65102 2.41234 4.64922 3.57695 4.64922 4.95676V12.4716H3.57227V4.95676C3.57227 3.39254 4.85871 2.105 6.42289 2.105C6.60365 2.10496 6.78399 2.12249 6.96137 2.15734Z" fill="#C9E0FD"/>
<path fill-rule="evenodd" clip-rule="evenodd" d="M1.37072 7.74133H13.6294C14.3477 7.74133 14.9351 8.32875 14.9351 9.04711V18.6942C14.9351 19.4125 14.3477 20 13.6294 20H1.37072C0.652363 20 0.0649414 19.4125 0.0649414 18.6942V9.04715C0.0649414 8.32879 0.652363 7.74133 1.37072 7.74133Z" fill="#FCCC2A"/>
<path fill-rule="evenodd" clip-rule="evenodd" d="M7.49982 11.0257C8.42994 11.0257 9.18471 11.7794 9.18471 12.7106C9.18471 13.4574 8.69861 14.0904 8.02463 14.3112V16.1908C8.02463 16.48 7.78896 16.7168 7.49982 16.7168C7.21064 16.7168 6.97502 16.48 6.97502 16.1908V14.3112C6.30221 14.0904 5.81494 13.4574 5.81494 12.7106C5.81494 11.7794 6.56971 11.0257 7.49982 11.0257Z" fill="#1E3445"/>
<path fill-rule="evenodd" clip-rule="evenodd" d="M13.5201 9.04714V18.6942C13.5201 19.4126 12.9316 20 12.2144 20H13.6294C14.3478 20 14.9352 19.4126 14.9352 18.6942V9.04714C14.9352 8.32879 14.3478 7.74136 13.6294 7.74136H12.2144C12.2963 7.74136 12.3783 7.74933 12.4569 7.76414C13.0602 7.8791 13.5201 8.41187 13.5201 9.04714Z" fill="#F7AF1D"/>
<path fill-rule="evenodd" clip-rule="evenodd" d="M7.26309 11.0428C8.00191 11.2204 8.5518 11.8864 8.5518 12.6799C8.5518 13.4279 8.0657 14.0608 7.39289 14.2816V16.1612C7.39289 16.34 7.3018 16.4993 7.16406 16.5938C7.25516 16.6701 7.37238 16.7168 7.49988 16.7168C7.78906 16.7168 8.02469 16.48 8.02469 16.1909V14.3113C8.69863 14.0904 9.18477 13.4575 9.18477 12.7107C9.18477 11.7794 8.43 11.0258 7.49988 11.0258C7.42064 11.0256 7.34149 11.0313 7.26309 11.0428Z" fill="#06283D"/>
</svg>
