<svg width="21" height="22" viewBox="0 0 21 22" fill="none" xmlns="http://www.w3.org/2000/svg">
<g clip-path="url(#clip0_106_140)">
<path d="M20.2022 8.54804L17.8422 6.28398C17.5939 6.04573 17.1911 6.04573 16.9428 6.28398C16.6944 6.52222 16.6944 6.90857 16.9428 7.14685L18.2171 8.36935H15.3431V1.11015C15.3431 0.773184 15.0583 0.5 14.707 0.5H2.28065C2.28002 0.5 2.27951 0.500081 2.27887 0.500081C2.16872 0.500366 2.05865 0.528026 1.96024 0.583143C1.76482 0.692441 1.64465 0.893099 1.64465 1.11015V16.8488C1.64465 17.0687 1.768 17.2716 1.96749 17.3799L9.09375 21.2474C9.19097 21.3001 9.29892 21.3264 9.40692 21.3264C9.51762 21.3264 9.62841 21.2987 9.72733 21.2433C9.92275 21.134 10.0429 20.9333 10.0429 20.7163V17.4589H14.707C15.0582 17.4589 15.343 17.1857 15.343 16.8488V9.5896H18.217L16.9427 10.8121C16.6943 11.0503 16.6943 11.4367 16.9427 11.675C17.0669 11.7941 17.2297 11.8537 17.3924 11.8537C17.5551 11.8537 17.718 11.7941 17.8421 11.675L20.2021 9.41091C20.4506 9.17263 20.4506 8.78628 20.2022 8.54804ZM8.77092 19.6701L2.91665 16.493V2.15635L8.77092 5.33348V19.6701ZM14.071 16.2386H10.0429V4.97764C10.0429 4.75775 9.91957 4.55485 9.72008 4.44657L4.69661 1.7203H14.071V8.36931H12.587C12.2358 8.36931 11.951 8.64249 11.951 8.97945C11.951 9.31642 12.2358 9.5896 12.587 9.5896H14.071V16.2386Z" fill="#36CAA8"/>
</g>
<defs>
<clipPath id="clip0_106_140">
<rect width="20.8264" height="20.8264" fill="white" transform="translate(0.603271 0.5)"/>
</clipPath>
</defs>
</svg>
