<svg width="15" height="14" viewBox="0 0 15 14" fill="none" xmlns="http://www.w3.org/2000/svg">
<path d="M10.1377 6.01562C10.1377 5.71359 9.89286 5.46875 9.59082 5.46875H3.95801C3.65597 5.46875 3.41113 5.71359 3.41113 6.01562C3.41113 6.31766 3.65597 6.5625 3.95801 6.5625H9.59082C9.89286 6.5625 10.1377 6.31766 10.1377 6.01562Z" fill="#CA9636"/>
<path d="M3.95801 7.65625C3.65597 7.65625 3.41113 7.90109 3.41113 8.20312C3.41113 8.50516 3.65597 8.75 3.95801 8.75H7.37901C7.68105 8.75 7.92589 8.50516 7.92589 8.20312C7.92589 7.90109 7.68105 7.65625 7.37901 7.65625H3.95801Z" fill="#CA9636"/>
<path d="M5.24306 12.9062H3.41406C2.81097 12.9062 2.32031 12.4156 2.32031 11.8125V2.1875C2.32031 1.58441 2.81097 1.09375 3.41406 1.09375H10.1376C10.7407 1.09375 11.2313 1.58441 11.2313 2.1875V5.55078C11.2313 5.85282 11.4762 6.09766 11.7782 6.09766C12.0803 6.09766 12.3251 5.85282 12.3251 5.55078V2.1875C12.3251 0.981313 11.3438 0 10.1376 0H3.41406C2.20788 0 1.22656 0.981313 1.22656 2.1875V11.8125C1.22656 13.0187 2.20788 14 3.41406 14H5.24306C5.5451 14 5.78993 13.7552 5.78993 13.4531C5.78993 13.1511 5.5451 12.9062 5.24306 12.9062Z" fill="#CA9636"/>
<path d="M13.2937 7.91798C12.654 7.2783 11.6132 7.27828 10.9739 7.91755L7.97147 10.9133C7.9077 10.977 7.86067 11.0553 7.83448 11.1415L7.18061 13.2941C7.12264 13.485 7.17314 13.6922 7.31243 13.835C7.41677 13.9419 7.55853 14 7.70391 14C7.75256 14 7.80167 13.9935 7.84987 13.9801L10.0572 13.3687C10.148 13.3435 10.2308 13.2953 10.2975 13.2287L13.2937 10.2382C13.9334 9.59853 13.9334 8.55772 13.2937 7.91798ZM9.62664 12.353L8.51616 12.6606L8.84114 11.5907L10.867 9.56933L11.6406 10.3429L9.62664 12.353ZM12.5207 9.46449L12.4147 9.57023L11.6413 8.79681L11.7469 8.69143C11.9601 8.4782 12.3071 8.4782 12.5203 8.69143C12.7335 8.90466 12.7335 9.25159 12.5207 9.46449Z" fill="#CA9636"/>
<path d="M9.59082 3.28125H3.95801C3.65597 3.28125 3.41113 3.52609 3.41113 3.82812C3.41113 4.13016 3.65597 4.375 3.95801 4.375H9.59082C9.89286 4.375 10.1377 4.13016 10.1377 3.82812C10.1377 3.52609 9.89286 3.28125 9.59082 3.28125Z" fill="#CA9636"/>
</svg>
