<svg width="18" height="20" viewBox="0 0 18 20" fill="none" xmlns="http://www.w3.org/2000/svg">
<g clip-path="url(#clip0_306_2188)">
<path d="M9 10C10.3261 10 11.5979 9.47322 12.5355 8.53553C13.4732 7.59785 14 6.32608 14 5C14 3.67392 13.4732 2.40215 12.5355 1.46447C11.5979 0.526784 10.3261 0 9 0C7.67392 0 6.40215 0.526784 5.46447 1.46447C4.52678 2.40215 4 3.67392 4 5C4 6.32608 4.52678 7.59785 5.46447 8.53553C6.40215 9.47322 7.67392 10 9 10ZM7.21484 11.875C3.36719 11.875 0.25 14.9922 0.25 18.8398C0.25 19.4805 0.769531 20 1.41016 20H16.5898C17.2305 20 17.75 19.4805 17.75 18.8398C17.75 14.9922 14.6328 11.875 10.7852 11.875H7.21484Z" fill="#AEAEAE"/>
</g>
<defs>
<clipPath id="clip0_306_2188">
<path d="M0.25 0H17.75V20H0.25V0Z" fill="white"/>
</clipPath>
</defs>
</svg>
