<svg width="20" height="21" viewBox="0 0 20 21" fill="none" xmlns="http://www.w3.org/2000/svg">
<g clip-path="url(#clip0_315_3071)">
<path d="M10 0.5C4.47301 0.5 0 4.9725 0 10.5C0 16.0269 4.4725 20.5 10 20.5C15.527 20.5 20 16.0275 20 10.5C20 4.97301 15.5275 0.5 10 0.5ZM10 19.1046C5.25539 19.1046 1.39535 15.2446 1.39535 10.5C1.39535 5.75535 5.25539 1.89535 10 1.89535C14.7446 1.89535 18.6046 5.75535 18.6046 10.5C18.6046 15.2446 14.7446 19.1046 10 19.1046Z" fill="#353B43"/>
<path d="M9.70413 13.1533C9.15127 13.1533 8.70374 13.614 8.70374 14.1668C8.70374 14.7066 9.13811 15.1804 9.70413 15.1804C10.2701 15.1804 10.7176 14.7066 10.7176 14.1668C10.7176 13.614 10.2569 13.1533 9.70413 13.1533Z" fill="#353B43"/>
<path d="M9.87523 5.47925C8.0982 5.47925 7.2821 6.53233 7.2821 7.24311C7.2821 7.75647 7.71648 7.99343 8.07187 7.99343C8.78269 7.99343 8.49312 6.97983 9.83574 6.97983C10.4939 6.97983 11.0204 7.26944 11.0204 7.87495C11.0204 8.58573 10.2833 8.99378 9.8489 9.36233C9.46714 9.69136 8.96699 10.2311 8.96699 11.3631C8.96699 12.0476 9.15128 12.245 9.69093 12.245C10.3359 12.245 10.4675 11.9555 10.4675 11.7053C10.4675 11.0208 10.4807 10.626 11.2047 10.06C11.5601 9.78355 12.6789 8.88843 12.6789 7.65112C12.6789 6.41382 11.5601 5.47925 9.87523 5.47925Z" fill="#353B43"/>
</g>
<defs>
<clipPath id="clip0_315_3071">
<rect width="20" height="20" fill="white" transform="translate(0 0.5)"/>
</clipPath>
</defs>
</svg>
