<svg width="15" height="14" viewBox="0 0 15 14" fill="none" xmlns="http://www.w3.org/2000/svg">
<path d="M7.50022 1.43219C6.25738 1.43219 5.04245 1.80073 4.00907 2.49122C2.97568 3.1817 2.17026 4.16311 1.69465 5.31135C1.21903 6.45958 1.09459 7.72306 1.33705 8.94202C1.57952 10.161 2.178 11.2807 3.05682 12.1595C3.93564 13.0383 5.05533 13.6368 6.27429 13.8793C7.49324 14.1217 8.75673 13.9973 9.90496 13.5217C11.0532 13.046 12.0346 12.2406 12.7251 11.2072C13.4156 10.1739 13.7841 8.95893 13.7841 7.71609C13.7841 6.0495 13.1221 4.45116 11.9436 3.2727C10.7651 2.09424 9.16681 1.43219 7.50022 1.43219ZM7.50022 12.6036C6.53356 12.6036 5.58862 12.3169 4.78488 11.7799C3.98113 11.2428 3.35469 10.4795 2.98477 9.58645C2.61485 8.69338 2.51806 7.71067 2.70665 6.76259C2.89523 5.81451 3.36072 4.94365 4.04424 4.26012C4.72777 3.5766 5.59864 3.11111 6.54672 2.92252C7.49479 2.73394 8.4775 2.83073 9.37057 3.20065C10.2636 3.57057 11.027 4.19701 11.564 5.00075C12.1011 5.8045 12.3877 6.74944 12.3877 7.71609C12.3877 9.01233 11.8728 10.2555 10.9562 11.1721C10.0396 12.0886 8.79646 12.6036 7.50022 12.6036ZM9.90905 1.31349C9.82343 1.26757 9.74835 1.20429 9.68859 1.12769C9.62883 1.0511 9.58572 0.962872 9.562 0.868661C9.53828 0.774451 9.53449 0.676328 9.55086 0.580568C9.56723 0.484807 9.6034 0.393516 9.65706 0.312533C9.71073 0.23155 9.7807 0.162657 9.86251 0.110259C9.94432 0.057862 10.0362 0.0231135 10.1322 0.00823592C10.2282 -0.00664169 10.3262 -0.0013209 10.42 0.0238581C10.5139 0.049037 10.6014 0.09352 10.6771 0.154462L12.7717 1.55089C12.8955 1.63408 12.9895 1.75475 13.0397 1.89521C13.09 2.03566 13.0939 2.18852 13.051 2.33139C13.008 2.47425 12.9205 2.59961 12.8011 2.68908C12.6817 2.77856 12.5369 2.82746 12.3877 2.82861C12.2504 2.83018 12.1161 2.78867 12.0037 2.70992L9.90905 1.31349ZM2.03322 2.51442C1.93217 2.36049 1.89601 2.17287 1.93263 1.99241C1.96924 1.81195 2.07566 1.65326 2.22872 1.55089L4.32335 0.154462C4.39901 0.09352 4.48655 0.049037 4.58038 0.0238581C4.67421 -0.0013209 4.77227 -0.00664169 4.86827 0.00823592C4.96427 0.0231135 5.05612 0.057862 5.13792 0.110259C5.21973 0.162657 5.2897 0.23155 5.34337 0.312533C5.39703 0.393516 5.4332 0.484807 5.44957 0.580568C5.46594 0.676328 5.46215 0.774451 5.43843 0.868661C5.41471 0.962872 5.3716 1.0511 5.31184 1.12769C5.25208 1.20429 5.177 1.26757 5.09139 1.31349L2.99675 2.70992C2.88431 2.78867 2.75 2.83018 2.61273 2.82861C2.49773 2.82802 2.38466 2.79903 2.28356 2.74421C2.18246 2.6894 2.09647 2.61046 2.03322 2.51442ZM9.39237 8.61679C9.45781 8.68169 9.50975 8.75892 9.5452 8.844C9.58065 8.92908 9.5989 9.02034 9.5989 9.11252C9.5989 9.20469 9.58065 9.29595 9.5452 9.38103C9.50975 9.46611 9.45781 9.54334 9.39237 9.60825C9.32746 9.67369 9.25024 9.72563 9.16515 9.76108C9.08007 9.79653 8.98881 9.81478 8.89664 9.81478C8.80447 9.81478 8.71321 9.79653 8.62812 9.76108C8.54304 9.72563 8.46582 9.67369 8.40091 9.60825L7.00449 8.21182C6.93977 8.14658 6.88858 8.06921 6.85383 7.98414C6.81909 7.89907 6.80147 7.80798 6.802 7.71609V4.92325C6.802 4.73807 6.87557 4.56048 7.00651 4.42954C7.13745 4.2986 7.31504 4.22504 7.50022 4.22504C7.68539 4.22504 7.86299 4.2986 7.99393 4.42954C8.12487 4.56048 8.19843 4.73807 8.19843 4.92325V7.42983L9.39237 8.61679Z" fill="#CA4236"/>
</svg>
