<svg width="21" height="22" viewBox="0 0 21 22" fill="none" xmlns="http://www.w3.org/2000/svg">
<g clip-path="url(#clip0_235_441)">
<path d="M17.9749 2.57235C18.4306 2.67255 18.8374 2.92804 19.1255 3.29509C19.4137 3.66214 19.5653 4.11793 19.5544 4.58444V8.63879C19.5537 11.291 18.7577 13.8821 17.2691 16.0773C15.7806 18.2724 13.668 19.9707 11.2042 20.9527C10.7501 21.1224 10.2499 21.1224 9.79577 20.9527C7.33202 19.9707 5.21938 18.2724 3.73084 16.0773C2.24231 13.8821 1.44628 11.291 1.44562 8.63879V4.5442C1.43473 4.07769 1.58633 3.6219 1.87447 3.25485C2.1626 2.8878 2.56935 2.63231 3.0251 2.53211L10.0674 0.972746C10.3515 0.902436 10.6485 0.902436 10.9326 0.972746L17.9749 2.57235Z" fill="#20BF55"/>
<path d="M9.72528 13.8098C9.46277 13.8114 9.21005 13.7103 9.02105 13.5281L6.72727 11.2746C6.63298 11.1811 6.55813 11.0698 6.50706 10.9472C6.45598 10.8246 6.42969 10.6931 6.42969 10.5603C6.42969 10.4275 6.45598 10.296 6.50706 10.1734C6.55813 10.0508 6.63298 9.93955 6.72727 9.84603C6.91577 9.65865 7.17075 9.55348 7.43653 9.55348C7.70231 9.55348 7.9573 9.65865 8.14579 9.84603L9.73534 11.4054L13.8702 7.38123C13.9646 7.28809 14.0765 7.21446 14.1994 7.16456C14.3224 7.11466 14.4539 7.08945 14.5865 7.09039C14.7192 7.09132 14.8504 7.11838 14.9726 7.17C15.0948 7.22163 15.2056 7.29682 15.2988 7.39129C15.3919 7.48575 15.4655 7.59763 15.5154 7.72055C15.5653 7.84346 15.5905 7.975 15.5896 8.10766C15.5887 8.24032 15.5616 8.37149 15.51 8.49369C15.4583 8.61589 15.3832 8.72673 15.2887 8.81987L10.4496 13.5784C10.2477 13.7474 9.9877 13.8304 9.72528 13.8098Z" fill="#EDEBEA"/>
</g>
<defs>
<clipPath id="clip0_235_441">
<rect width="21" height="21" fill="white" transform="translate(0 0.5)"/>
</clipPath>
</defs>
</svg>
