<svg width="20" height="20" viewBox="0 0 20 20" fill="none" xmlns="http://www.w3.org/2000/svg">
<g clip-path="url(#clip0_306_2170)">
<g clip-path="url(#clip1_306_2170)">
<path d="M18.6364 19H1.36364C1.13459 19 0.914917 18.8946 0.752953 18.7071C0.59099 18.5196 0.5 18.2652 0.5 18C0.5 17.7348 0.59099 17.4804 0.752953 17.2929C0.914917 17.1054 1.13459 17 1.36364 17H18.6364C18.8654 17 19.0851 17.1054 19.247 17.2929C19.409 17.4804 19.5 17.7348 19.5 18C19.5 18.2652 19.409 18.5196 19.247 18.7071C19.0851 18.8946 18.8654 19 18.6364 19Z" fill="#AEAEAE"/>
<path d="M8.6875 10L12.6875 7.5L8.6875 5V10Z" fill="#AEAEAE"/>
<path d="M15.8462 0H4.15385C3.18514 0.00119089 2.25645 0.396661 1.57147 1.09966C0.886491 1.80267 0.50116 2.7558 0.5 3.75V11.25C0.50116 12.2442 0.886491 13.1973 1.57147 13.9003C2.25645 14.6033 3.18514 14.9988 4.15385 15H15.8462C16.8149 14.9988 17.7436 14.6033 18.4285 13.9003C19.1135 13.1973 19.4988 12.2442 19.5 11.25V3.75C19.4988 2.7558 19.1135 1.80267 18.4285 1.09966C17.7436 0.396661 16.8149 0.00119089 15.8462 0ZM13.488 8.799L9.35181 11.25C9.12963 11.3817 8.8776 11.451 8.62105 11.451C8.3645 11.451 8.11247 11.3817 7.89029 11.25C7.6681 11.1184 7.4836 10.929 7.35532 10.701C7.22704 10.473 7.15951 10.2143 7.1595 9.951V5.049C7.15951 4.7857 7.22704 4.52704 7.35532 4.29901C7.4836 4.07099 7.6681 3.88164 7.89029 3.74999C8.11247 3.61834 8.3645 3.54904 8.62105 3.54904C8.8776 3.54904 9.12963 3.61835 9.35181 3.75L13.488 6.201C13.7101 6.33266 13.8946 6.52201 14.0229 6.75003C14.1511 6.97805 14.2187 7.23671 14.2187 7.5C14.2187 7.76329 14.1511 8.02195 14.0229 8.24997C13.8946 8.47799 13.7101 8.66734 13.488 8.799Z" fill="#AEAEAE"/>
</g>
</g>
<defs>
<clipPath id="clip0_306_2170">
<rect width="20" height="20" fill="white"/>
</clipPath>
<clipPath id="clip1_306_2170">
<rect width="20.625" height="20" fill="white" transform="translate(-0.3125)"/>
</clipPath>
</defs>
</svg>
