<svg width="15" height="14" viewBox="0 0 15 14" fill="none" xmlns="http://www.w3.org/2000/svg">
<g clip-path="url(#clip0_47_49)">
<path d="M10.7125 8.34575L10.7072 8.3895C9.4245 7.75017 9.29033 7.665 9.12466 7.9135C9.00975 8.08558 8.67491 8.47583 8.574 8.59133C8.47191 8.70508 8.37041 8.71383 8.19716 8.63508C8.02216 8.54758 7.46041 8.36383 6.79541 7.76883C6.27741 7.30508 5.92975 6.73633 5.82708 6.56133C5.65616 6.26617 6.01375 6.22417 6.33925 5.60817C6.39758 5.48567 6.36783 5.38942 6.32466 5.3025C6.28091 5.215 5.93266 4.3575 5.78683 4.01567C5.64683 3.675 5.50275 3.71817 5.39483 3.71817C5.05883 3.689 4.81325 3.69367 4.59683 3.91883C3.65533 4.95367 3.89275 6.02117 4.69833 7.15633C6.2815 9.22833 7.125 9.60983 8.66733 10.1395C9.08383 10.2719 9.46358 10.2533 9.764 10.2101C10.0988 10.157 10.7947 9.7895 10.94 9.37825C11.0887 8.967 11.0887 8.62575 11.045 8.547C11.0018 8.46825 10.8875 8.4245 10.7125 8.34575Z" fill="#36CAA8"/>
<path d="M12.47 2.01188C7.98475 -2.32404 0.561833 0.820713 0.558917 6.93755C0.558917 8.16021 0.879167 9.35255 1.48933 10.4055L0.5 14L4.19542 13.0363C8.80667 15.5271 14.4977 12.2196 14.5 6.94105C14.5 5.08838 13.7767 3.3448 12.4612 2.03463L12.47 2.01188ZM13.3345 6.9218C13.331 11.3744 8.44325 14.1551 4.5775 11.8825L4.3675 11.7576L2.18 12.3264L2.76625 10.2001L2.62683 9.98138C0.221167 6.1518 2.985 1.1468 7.542 1.1468C9.09017 1.1468 10.5433 1.75055 11.6376 2.8443C12.7313 3.92871 13.3345 5.3818 13.3345 6.9218Z" fill="#36CAA8"/>
</g>
<defs>
<clipPath id="clip0_47_49">
<rect width="14" height="14" fill="white" transform="translate(0.5)"/>
</clipPath>
</defs>
</svg>
