<svg width="35" height="35" viewBox="0 0 35 35" fill="none" xmlns="http://www.w3.org/2000/svg">
<path d="M2.2417 32.4361L4.38821 24.5954C3.06453 22.3058 2.37287 19.7002 2.37287 17.0349C2.37287 8.69335 9.16419 1.908 17.5058 1.908C21.5543 1.908 25.3524 3.48807 28.2085 6.34412C31.0645 9.20613 32.6386 13.0043 32.6386 17.0468C32.6327 25.3884 25.8473 32.1738 17.5058 32.1738H17.4998C14.9657 32.1738 12.4793 31.5358 10.2673 30.3313L2.2417 32.4361ZM10.6369 27.5945L11.096 27.8688C13.0279 29.0136 15.24 29.6218 17.4998 29.6218H17.5058C24.4402 29.6218 30.0807 23.9813 30.0807 17.0468C30.0807 13.6899 28.7749 10.5298 26.4018 8.15076C24.0288 5.77172 20.8686 4.46593 17.5117 4.46593C10.5713 4.46593 4.9308 10.1065 4.9308 17.0409C4.9308 19.414 5.59264 21.7274 6.85073 23.7308L7.14885 24.2078L5.87884 28.8467L10.6369 27.5945Z" fill="white"/>
<path d="M2.77295 31.9055L4.84791 24.339C3.56596 22.1269 2.8922 19.6107 2.8922 17.0409C2.89816 8.98552 9.45097 2.43867 17.5004 2.43867C21.4058 2.43867 25.0787 3.95912 27.8334 6.71977C30.5941 9.48041 32.1145 13.1474 32.1086 17.0528C32.1026 25.1022 25.5498 31.655 17.5004 31.655H17.4944C15.0498 31.655 12.6469 31.0409 10.5123 29.8782L2.77295 31.9055Z" fill="url(#paint0_linear_726_580)"/>
<path d="M2.2417 32.4361L4.38821 24.5954C3.06453 22.3058 2.37287 19.7002 2.37287 17.0349C2.37287 8.69337 9.16419 1.90802 17.5058 1.90802C21.5543 1.90802 25.3524 3.48809 28.2085 6.34414C31.0645 9.20615 32.6386 13.0043 32.6386 17.0469C32.6327 25.3884 25.8473 32.1738 17.5058 32.1738H17.4998C14.9657 32.1738 12.4793 31.5358 10.2673 30.3314L2.2417 32.4361ZM10.6369 27.5946L11.096 27.8688C13.0279 29.0136 15.24 29.6218 17.4998 29.6218H17.5058C24.4402 29.6218 30.0807 23.9813 30.0807 17.0469C30.0807 13.69 28.7749 10.5298 26.4018 8.15078C24.0288 5.77173 20.8686 4.46594 17.5117 4.46594C10.5713 4.46594 4.9308 10.1065 4.9308 17.0409C4.9308 19.414 5.59264 21.7274 6.85073 23.7308L7.14885 24.2078L5.87884 28.8467L10.6369 27.5946Z" fill="url(#paint1_linear_726_580)"/>
<path fill-rule="evenodd" clip-rule="evenodd" d="M13.72 10.7087C13.4338 10.0767 13.1357 10.0647 12.8674 10.0528C12.6468 10.0409 12.3963 10.0469 12.1399 10.0469C11.8895 10.0469 11.4781 10.1423 11.1323 10.5179C10.7864 10.8935 9.80859 11.8118 9.80859 13.6721C9.80859 15.5324 11.1621 17.3331 11.3529 17.5835C11.5437 17.8339 13.9704 21.7751 17.8103 23.2896C21.0062 24.5477 21.6561 24.2973 22.3478 24.2377C23.0394 24.178 24.5837 23.3254 24.8997 22.4429C25.2157 21.5605 25.2157 20.8032 25.1203 20.6482C25.0249 20.4932 24.7745 20.3978 24.3929 20.207C24.0173 20.0162 22.157 19.1039 21.8111 18.9787C21.4653 18.8535 21.2149 18.7879 20.9585 19.1695C20.7081 19.5452 19.9807 20.3978 19.76 20.6482C19.5394 20.8986 19.3188 20.9344 18.9432 20.7436C18.5675 20.5528 17.3452 20.1533 15.9023 18.8654C14.7754 17.8637 14.0181 16.6235 13.7975 16.2479C13.5769 15.8722 13.7737 15.6636 13.9645 15.4787C14.1314 15.3118 14.3401 15.0375 14.5309 14.8169C14.7217 14.5963 14.7813 14.4412 14.9065 14.1848C15.0318 13.9344 14.9721 13.7138 14.8767 13.523C14.7933 13.3262 14.0599 11.46 13.72 10.7087Z" fill="white"/>
<defs>
<linearGradient id="paint0_linear_726_580" x1="17.4406" y1="31.9079" x2="17.4406" y2="2.43665" gradientUnits="userSpaceOnUse">
<stop stop-color="#20B038"/>
<stop offset="1" stop-color="#60D66A"/>
</linearGradient>
<linearGradient id="paint1_linear_726_580" x1="17.4402" y1="32.4361" x2="17.4402" y2="1.90802" gradientUnits="userSpaceOnUse">
<stop stop-color="#F9F9F9"/>
<stop offset="1" stop-color="white"/>
</linearGradient>
</defs>
</svg>
